# xmcd
# 
# Track frame offsets:
#     150
#     37120
#     57980
#     90977
#     130720
#     165155
# 
# Disc length: 2643
# 
# Revision: 15
# Processed by: cddbd v1.5.2PL0 Copyright (c) Steve Scherf et al.
# Submitted via: fre:ac v1.0.31
# 
DISCID=3f0a5106
DTITLE=Clapton, Eric - Just One Night [CD2] [Remastered]
DYEAR=1980
DGENRE=Blues
TTITLE0=Double Trouble (Live)
TTITLE1=Setting Me Up (Live)
TTITLE2=Blues Power (Live)
TTITLE3=Rambling On My Mind (Live)
TTITLE4=Cocaine (Live)
TTITLE5=Further On Up The Road (Live)
EXTD=YEAR: 1980
EXTT0=
EXTT1=
EXTT2=
EXTT3=
EXTT4=
EXTT5=
PLAYORDER=
